<svg viewBox="0 0 22 14" xmlns="http://www.w3.org/2000/svg">
  <defs></defs>
  <g stroke="none" stroke-width="1" fill="none" fill-rule="evenodd">
    <g transform="translate(-41.000000, -20.000000)" fill="#ffffff">
      <g transform="translate(41.000000, 20.000000)">
        <path d="M21.7708263,0.34368 C21.5064865,-0.01112 20.9874054,-0.098 20.609668,0.15144 L0.157482625,13.63872 C0.307915058,13.84072 0.556880309,13.97368 0.839312741,13.9732 L0.840332046,13.97368 L0.840332046,13.9732 L21.0884865,13.9732 C21.5487027,13.9732 21.9218533,13.62176 21.9218533,13.18784 L21.9218533,0.78152 C21.919305,0.63008 21.8703784,0.47768 21.7708263,0.34368"></path>
        <path d="M1.31957529,0.15088 C0.942262548,-0.09816 0.422756757,-0.01176 0.158332046,0.34312 C0.0588648649,0.47704 0.00985328185,0.63 0.0073050193,0.78144 L0.00781467181,13.21144 L9.74481081,5.69912 L1.31957529,0.15088"></path>
      </g>
    </g>
  </g>
</svg>